# xmcd
#
# Track frame offsets:
#	150
#	16390
#	34335
#	54510
#	76815
#	95940
#	122592
#	140667
#	160690
# Disc length: 2547 seconds
# Revision: 16
# Processed by: cddbd v1.5.1PL0 Copyright (c) Steve Scherf et al.
#
# Submitted via: libkcddb 0.20
#
DISCID=7209f109
DTITLE=Steely Dan - Everything Must Go
DYEAR=2003
DGENRE=Rock
TTITLE0=The Last Mall
TTITLE1=Things I Miss The Most
TTITLE2=Blues Beach
TTITLE3=Godwhacker
TTITLE4=Slang Of Ages
TTITLE5=Green Book
TTITLE6=Pixeleen
TTITLE7=Lunch With Gina
TTITLE8=Everything Must Go
EXTD=YEAR: 2003
EXTT0=
EXTT1=
EXTT2=
EXTT3=
EXTT4=
EXTT5=
EXTT6=
EXTT7=
EXTT8=
PLAYORDER=
